<?xml version="1.0" encoding="iso-8859-1"?>
<!-- Generator: Adobe Illustrator 19.0.0, SVG Export Plug-In . SVG Version: 6.00 Build 0)  -->
<svg xmlns="http://www.w3.org/2000/svg" xmlns:xlink="http://www.w3.org/1999/xlink" version="1.1" id="Layer_1" x="0px" y="0px" viewBox="0 0 512 512" style="enable-background:new 0 0 512 512;" xml:space="preserve" width="512" height="512">
<g>
	<polygon style="fill:#FF4E51;" points="361.5,0 346.5,20 331.5,0 256,0 136,256 256,512 481.5,512 481.5,0  "/>
	<polygon style="fill:#FF7149;" points="180.5,0 165.5,20 150.5,0 30.5,0 30.5,512 256,512 256,0  "/>
	<polygon style="fill:#FFEAC3;" points="421.5,60 256,60 196,256 256,452 421.5,452  "/>
	<rect x="90.5" y="60" style="fill:#FFFFFF;" width="165.5" height="392"/>
	<polygon style="fill:#C0C8D2;" points="361.5,0 331.5,0 331.5,105 256,105 236,120 256,135 361.5,135  "/>
	<polygon style="fill:#DAE0E7;" points="180.5,105 180.5,0 150.5,0 150.5,135 256,135 256,105  "/>
	<path style="fill:#FF876C;" d="M331.5,315c0-23.973-11.493-46.461-30.5-60.604V225c0-24.813-20.187-45-45-45l-30,75l30,75h75.5V315   z"/>
	<path style="fill:#FF9E90;" d="M211,225v29.396c-19.007,14.144-30.5,36.631-30.5,60.604v15H256V180   C231.187,180,211,200.187,211,225z"/>
	<polygon style="fill:#09213D;" points="331.5,361 256,361 243.867,376 256,391 331.5,391  "/>
	<rect x="180.5" y="361" style="fill:#233952;" width="75.5" height="30"/>
</g>















</svg>
